#!OML:ASF H:\Dans Jumps\Project 1\Capture day 1\Session 1\subject.ASF
:FULLY-SPECIFIED
:DEGREES
360
root 0.463046 22.9115 -7.14248 9.15829 -0.234726 0.102795
lowerback -1.18162 -0.467341 -3.26031
upperback 0.934268 -0.57585 0.992644
thorax 1.66458 -0.331856 2.83335
lowerneck -6.29462 0.877809 -2.83478
upperneck 25.7049 1.20743 1.9044
head 9.03264 0.487906 1.25044
rclavicle 1.52816e-015 -6.85807e-015
rhumerus -24.5543 4.85395 -72.8008
rradius 37.2885
rwrist 28.6019
rhand -17.9718 -24.3478
rfingers 7.12502
rthumb 8.29751 -54.1649
lclavicle 1.52816e-015 -6.85807e-015
lhumerus -22.9615 -25.6667 72.9469
lradius 29.5831
lwrist 26.371
lhand -21.6933 -1.45431
lfingers 7.12502
lthumb 4.70492 28.4734
rfemur -14.6719 -9.03103 17.6518
rtibia 59.6968
rfoot 29.917 -5.75068
rtoes 29.1773
lfemur -15.8107 10.8211 -17.159
ltibia 49.9731
lfoot 29.5142 -0.947193
ltoes 2.16484
361
root 0.462082 23.0984 -7.02919 9.07211 -0.202152 0.0539725
lowerback -0.640614 -0.446231 -3.23802
upperback 1.07328 -0.564404 1.02359
thorax 1.50282 -0.325202 2.85636
lowerneck -6.32245 0.813444 -2.84569
upperneck 25.8112 1.13638 1.83538
head 9.0778 0.445779 1.22356
rclavicle -1.30452e-015 -2.98177e-015
rhumerus -24.5011 3.87737 -73.0647
rradius 36.2663
rwrist 29.2457
rhand -17.98 -24.3202
rfingers 7.12502
rthumb 8.28963 -54.1376
lclavicle -1.30452e-015 -2.98177e-015
lhumerus -23.0582 -24.7319 73.4704
lradius 28.8543
lwrist 26.5383
lhand -21.6037 -1.40464
lfingers 7.12502
lthumb 4.79146 28.5212
rfemur -16.3343 -9.33618 17.8772
rtibia 62.7603
rfoot 28.876 -5.43491
rtoes 28.6662
lfemur -17.1971 10.9796 -17.2489
ltibia 51.9196
lfoot 28.4024 -0.177756
ltoes 1.9937
362
root 0.461215 23.2731 -6.91638 9.17184 -0.178206 -0.056086
lowerback -0.24627 -0.42959 -3.15301
upperback 1.15543 -0.555316 1.0744
thorax 1.36471 -0.318753 2.8636
lowerneck -6.40553 0.759871 -2.8435
upperneck 25.9329 1.08415 1.7503
head 9.13859 0.411998 1.19118
rclavicle -1.21756e-015 -5.86415e-015
rhumerus -24.4675 2.95853 -73.342
rradius 35.2689
rwrist 29.888
rhand -17.9515 -24.3071
rfingers 7.12502
rthumb 8.31717 -54.1233
lclavicle -1.21756e-015 -5.86415e-015
lhumerus -23.1588 -23.7757 74.0111
lradius 28.0891
lwrist 26.4801
lhand -21.4994 -1.44268
lfingers 7.12502
lthumb 4.89218 28.4808
rfemur -18.1788 -9.60711 18.2233
rtibia 65.4915
rfoot 27.5194 -5.23921
rtoes 28.0598
lfemur -18.7771 11.1922 -17.3077
ltibia 53.6793
lfoot 27.117 0.379319
ltoes 1.65371
363
root 0.460539 23.4348 -6.80564 9.40903 -0.166206 -0.212274
lowerback 0.0516742 -0.420202 -3.0256
upperback 1.20437 -0.552986 1.1468
thorax 1.2469 -0.315292 2.8685
lowerneck -6.54393 0.728187 -2.8446
upperneck 26.033 1.06591 1.66152
head 9.20139 0.393576 1.16134
rclavicle 8.70925e-015 -6.65929e-015
rhumerus -24.4184 2.09306 -73.6199
rradius 34.2861
rwrist 30.5507
rhand -17.9473 -24.2759
rfingers 7.12502
rthumb 8.32118 -54.092
lclavicle 8.70925e-015 -6.65929e-015
lhumerus -23.2386 -22.7602 74.5545
lradius 27.2732
lwrist 26.1058
lhand -21.4134 -1.5955
lfingers 7.12502
lthumb 4.97517 28.3261
rfemur -20.1512 -9.8112 18.6681
rtibia 67.8906
rfoot 25.9991 -5.11947
rtoes 27.4227
lfemur -20.51 11.4442 -17.3486
ltibia 55.2816
lfoot 25.7841 0.691488
ltoes 1.20077
364
root 0.46022 23.5833 -6.69741 9.71896 -0.164461 -0.39225
lowerback 0.310089 -0.418353 -2.87884
upperback 1.2435 -0.558936 1.23537
thorax 1.1418 -0.316023 2.87885
lowerneck -6.72426 0.721781 -2.84287
upperneck 26.0826 1.08529 1.5679
head 9.25353 0.392821 1.13261
rclavicle 5.34234e-015 3.67752e-015
rhumerus -24.3578 1.25714 -73.8887
rradius 33.3433
rwrist 31.2371
rhand -17.9334 -24.243
rfingers 7.12502
rthumb 8.3346 -54.0585
lclavicle 5.34234e-015 3.67752e-015
lhumerus -23.285 -21.6723 75.0874
lradius 26.4122
lwrist 25.4006
lhand -21.3677 -1.81657
lfingers 7.12502
lthumb 5.01929 28.104
rfemur -22.1737 -9.9371 19.1703
rtibia 69.9653
rfoot 24.4927 -5.01595
rtoes 26.7776
lfemur -22.3255 11.7163 -17.3882
ltibia 56.7478
lfoot 24.4594 0.775987
ltoes 0.686686
